<?xml version="1.0" encoding="UTF-8"?>
<svg id="Livello_1" xmlns="http://www.w3.org/2000/svg" version="1.1" viewBox="0 0 100 100">
  <!-- Generator: Adobe Illustrator 29.5.1, SVG Export Plug-In . SVG Version: 2.1.0 Build 141)  -->
  <defs>
    <style>
      .st0 {
        fill: #aecc3a;
        stroke: #88a614;
      }

      .st0, .st1, .st2, .st3 {
        stroke-miterlimit: 10;
      }

      .st0, .st2, .st3 {
        stroke-width: 2px;
      }

      .st1 {
        fill: #fced24;
        stroke: #d6c700;
        stroke-width: 3px;
      }

      .st4 {
        display: none;
      }

      .st4, .st2 {
        fill: #f58d21;
      }

      .st2 {
        stroke: #cf6700;
      }

      .st3 {
        fill: #009a94;
        stroke: #00746e;
      }
    </style>
  </defs>
  <g>
    <path class="st0" d="M37.27,1.29C19.43,1.29,4.91,16.62,4.91,35.46c0,15.87,10.31,29.25,24.23,33.07l7.8-9.3c-11.96-.19-21.64-10.78-21.64-23.77s9.86-23.77,21.97-23.77h47.56l8.71-10.39h-56.28Z"/>
    <path class="st4" d="M57.95,45.03l-8.74-.42h-7.6c-6.01,0-10.91-4.11-10.91-9.15s4.89-9.15,10.91-9.15h17.41c8.6,0,16.75-3.8,22.27-10.39h-39.68c-11.74,0-21.3,8.77-21.3,19.54s8.97,18.99,20.21,19.52l16.35.42c6.01,0,10.91,4.11,10.91,9.15s-4.89,9.15-10.91,9.15h-17.51c-8.6,0-16.75,3.8-22.27,10.39h0,39.78c11.74,0,21.3-8.77,21.3-19.54s-8.97-18.99-20.21-19.52Z"/>
    <path class="st3" d="M61.19,98.71c17.84,0,32.36-15.33,32.36-34.16,0-15.87-10.31-29.25-24.23-33.07l-7.8,9.3c11.96.19,21.64,10.78,21.64,23.77s-9.86,23.77-21.97,23.77H13.53l-8.71,10.39h56.38Z"/>
  </g>
  <g>
    <path class="st1" d="M58.96,45.1l-7.69,10.15,5.6.14c6.01,0,10.91,4.11,10.91,9.15s-4.89,9.15-10.91,9.15h-17.51c-8.6,0-16.75,3.8-22.27,10.39h39.78c11.74,0,21.3-8.77,21.3-19.54,0-10.13-8.44-18.48-19.2-19.45Z"/>
    <path class="st2" d="M41.6,15.91c-11.74,0-21.3,8.77-21.3,19.54,0,10.13,8.44,18.48,19.2,19.45l7.8-10.29h-5.71c-6.01,0-10.91-4.11-10.91-9.15s4.89-9.15,10.91-9.15h17.41c8.6,0,16.75-3.8,22.27-10.39h-39.68Z"/>
  </g>
</svg>